 http://image.bayimg.com/gajdeaadp.jpg

[quote]
Complete name                    : Friends With Benefits 2011 dvdrip{daremusic}.mp4
Format                           : MPEG-4
Format profile                   : Base Media
Codec ID                         : isom
File size                        : 335 MiB
Duration                         : 1h 44mn
Overall bit rate                 : 446 Kbps
Encoded date                     : UTC 2011-08-24 13:50:37
Tagged date                      : UTC 2011-08-24 13:50:37
Writing application              : Yamb 2.1.0.0 [http://yamb.unite-video.com]

Video
ID                               : 1
Format                           : AVC
Format/Info                      : Advanced Video Codec
Format profile                   : High@L3.0
Format settings, CABAC           : Yes
Format settings, ReFrames        : 5 frames
Codec ID                         : avc1
Codec ID/Info                    : Advanced Video Coding
Duration                         : 1h 44mn
Bit rate mode                    : Variable
Bit rate                         : 403 Kbps
Maximum bit rate                 : 2 689 Kbps
Width                            : 720 pixels
Height                           : 304 pixels
Display aspect ratio             : 2.35:1
Frame rate mode                  : Constant
Frame rate                       : 25.000 fps
Color space                      : YUV
Chroma subsampling               : 4:2:0
Bit depth                        : 8 bits
Scan type                        : Progressive
Bits/(Pixel*Frame)               : 0.074
Stream size                      : 302 MiB (90%)
Title                            : EpicMoviez.Com
Writing library                  : x264 core 115 r1995 c1e60b9

Audio
ID                               : 2
Format                           : AAC
Format/Info                      : Advanced Audio Codec
Format version                   : Version 4
Format profile                   : LC
Format settings, SBR             : Yes
Format settings, PS              : Yes
Codec ID                         : 40
Duration                         : 1h 44mn
Bit rate mode                    : Variable
Bit rate                         : 40.0 Kbps
Maximum bit rate                 : 45.0 Kbps
Channel(s)                       : 2 channels
Channel positions                : Front: L R
Sampling rate                    : 44.1 KHz
Stream size                      : 30.0 MiB (9%)
Encoded date                     : UTC 2011-08-24 13:50:53
Tagged date                      : UTC 2011-08-24 13:50:59
[/quote]

 
http://image.bayimg.com/gajdfaadp.jpg 
http://image.bayimg.com/gajdgaadp.jpg 
http://image.bayimg.com/gajdhaadp.jpg 
http://image.bayimg.com/gajdkaadp.jpg